<svg width="138" height="33" viewBox="0 0 138 33" fill="none" xmlns="http://www.w3.org/2000/svg">
<path d="M16.9958 8.748C16.9958 8.748 16.8031 8.63467 16.4178 8.408C16.0324 8.18133 15.5224 7.932 14.8878 7.66C14.2531 7.36533 13.5618 7.10467 12.8138 6.878C12.0658 6.65133 11.3291 6.538 10.6038 6.538C10.0371 6.538 9.57243 6.62867 9.20976 6.81C8.84709 6.99133 8.66576 7.29733 8.66576 7.728C8.66576 8.136 8.84709 8.46467 9.20976 8.714C9.57243 8.96333 10.0824 9.19 10.7398 9.394C11.4198 9.598 12.2244 9.84733 13.1538 10.142C14.6498 10.5953 15.9418 11.1167 17.0298 11.706C18.1178 12.2953 18.9564 13.0547 19.5458 13.984C20.1351 14.8907 20.4298 16.1033 20.4298 17.622C20.4298 19.0727 20.1691 20.2967 19.6478 21.294C19.1264 22.2687 18.4238 23.0507 17.5398 23.64C16.6558 24.2293 15.6698 24.66 14.5818 24.932C13.4938 25.1813 12.3831 25.306 11.2498 25.306C10.0938 25.306 8.88109 25.1927 7.61176 24.966C6.36509 24.7167 5.15242 24.388 3.97376 23.98C2.79509 23.5493 1.71842 23.0507 0.743758 22.484L3.59976 16.67C3.59976 16.67 3.82642 16.806 4.27976 17.078C4.73309 17.35 5.33376 17.656 6.08176 17.996C6.82976 18.336 7.65709 18.642 8.56376 18.914C9.49309 19.186 10.4224 19.322 11.3518 19.322C12.0771 19.322 12.5758 19.2313 12.8478 19.05C13.1424 18.846 13.2898 18.5853 13.2898 18.268C13.2898 17.792 13.0404 17.4293 12.5418 17.18C12.0431 16.908 11.3858 16.6587 10.5698 16.432C9.77643 16.1827 8.89243 15.8993 7.91776 15.582C6.51242 15.106 5.35642 14.5733 4.44976 13.984C3.54309 13.372 2.87442 12.658 2.44376 11.842C2.01309 11.0033 1.79776 9.99467 1.79776 8.816C1.79776 7.02533 2.21709 5.52933 3.05576 4.328C3.89442 3.12667 4.99376 2.22 6.35376 1.608C7.73642 0.973333 9.22109 0.655999 10.8078 0.655999C11.9864 0.655999 13.1198 0.803333 14.2078 1.098C15.3184 1.37 16.3498 1.71 17.3018 2.118C18.2764 2.526 19.1264 2.91133 19.8518 3.274L16.9958 8.748ZM40.6717 25H34.2117V14.936C34.2117 14.052 34.0077 13.4173 33.5997 13.032C33.2144 12.624 32.761 12.42 32.2397 12.42C31.877 12.42 31.4917 12.5333 31.0837 12.76C30.6757 12.964 30.3017 13.2587 29.9617 13.644C29.6217 14.0293 29.3497 14.4713 29.1457 14.97V25H22.6857V7.116H28.4997V9.768C28.9304 9.11067 29.4744 8.56667 30.1317 8.136C30.789 7.68267 31.5484 7.34267 32.4097 7.116C33.271 6.88933 34.2117 6.776 35.2317 6.776C36.4557 6.776 37.4304 6.99133 38.1557 7.422C38.881 7.85267 39.425 8.408 39.7877 9.088C40.1504 9.768 40.3884 10.482 40.5017 11.23C40.615 11.9553 40.6717 12.624 40.6717 13.236V25ZM42.8169 19.594C42.8169 18.3927 43.1456 17.3387 43.8029 16.432C44.4602 15.5027 45.3669 14.7773 46.5229 14.256C47.7016 13.7347 49.0389 13.474 50.5349 13.474C51.2376 13.474 51.8949 13.5307 52.5069 13.644C53.1416 13.7573 53.6856 13.9273 54.1389 14.154V13.61C54.1389 12.7713 53.8896 12.148 53.3909 11.74C52.9149 11.332 52.1329 11.128 51.0449 11.128C50.0476 11.128 49.1069 11.298 48.2229 11.638C47.3616 11.9553 46.4549 12.4313 45.5029 13.066L43.6329 9.054C44.8342 8.28333 46.0922 7.71667 47.4069 7.354C48.7442 6.96867 50.1722 6.776 51.6909 6.776C54.5242 6.776 56.7116 7.422 58.2529 8.714C59.8169 9.98333 60.5989 11.876 60.5989 14.392V17.86C60.5989 18.472 60.6896 18.9027 60.8709 19.152C61.0522 19.3787 61.3696 19.5147 61.8229 19.56V25C61.3016 25.1133 60.8029 25.1927 60.3269 25.238C59.8736 25.306 59.4656 25.34 59.1029 25.34C57.9469 25.34 57.0629 25.136 56.4509 24.728C55.8616 24.2973 55.4762 23.674 55.2949 22.858L55.1589 22.212C54.3656 23.232 53.4476 24.014 52.4049 24.558C51.3622 25.0793 50.2516 25.34 49.0729 25.34C47.8942 25.34 46.8289 25.0907 45.8769 24.592C44.9249 24.0933 44.1769 23.4133 43.6329 22.552C43.0889 21.668 42.8169 20.682 42.8169 19.594ZM53.2889 20.036C53.5382 19.8547 53.7422 19.662 53.9009 19.458C54.0596 19.2313 54.1389 19.0047 54.1389 18.778V17.452C53.7762 17.316 53.3569 17.2027 52.8809 17.112C52.4276 17.0213 52.0196 16.976 51.6569 16.976C50.8862 16.976 50.2289 17.1687 49.6849 17.554C49.1636 17.9393 48.9029 18.4267 48.9029 19.016C48.9029 19.3333 48.9936 19.628 49.1749 19.9C49.3562 20.1493 49.6056 20.3533 49.9229 20.512C50.2402 20.648 50.6029 20.716 51.0109 20.716C51.3962 20.716 51.7929 20.6593 52.2009 20.546C52.6316 20.41 52.9942 20.24 53.2889 20.036ZM76.1924 25.34C74.9004 25.34 73.7784 25.0907 72.8264 24.592C71.8744 24.0707 71.1377 23.3227 70.6164 22.348V32.242H64.1564V7.116H69.7664V9.802C70.4011 8.82733 71.1831 8.07933 72.1124 7.558C73.0644 7.03667 74.2091 6.776 75.5464 6.776C76.7477 6.776 77.8471 7.00267 78.8444 7.456C79.8417 7.90933 80.7144 8.55533 81.4624 9.394C82.2104 10.2327 82.7884 11.2073 83.1964 12.318C83.6044 13.4287 83.8084 14.6527 83.8084 15.99C83.8084 17.7807 83.4797 19.3787 82.8224 20.784C82.1651 22.1893 81.2584 23.3 80.1024 24.116C78.9691 24.932 77.6657 25.34 76.1924 25.34ZM73.9484 19.9C74.4244 19.9 74.8551 19.798 75.2404 19.594C75.6484 19.39 75.9997 19.1067 76.2944 18.744C76.5891 18.3813 76.8157 17.962 76.9744 17.486C77.1331 17.01 77.2124 16.5 77.2124 15.956C77.2124 15.3893 77.1217 14.8793 76.9404 14.426C76.7817 13.9727 76.5437 13.5873 76.2264 13.27C75.9091 12.93 75.5351 12.6693 75.1044 12.488C74.6737 12.3067 74.1977 12.216 73.6764 12.216C73.3817 12.216 73.0871 12.2613 72.7924 12.352C72.5204 12.42 72.2597 12.5333 72.0104 12.692C71.7611 12.828 71.5117 13.0093 71.2624 13.236C71.0357 13.4627 70.8204 13.7347 70.6164 14.052V17.146C70.8204 17.6673 71.0924 18.1433 71.4324 18.574C71.7951 18.982 72.1917 19.3107 72.6224 19.56C73.0531 19.7867 73.4951 19.9 73.9484 19.9Z" fill="#8336D0"/>
<path d="M86.1381 25V10.8H88.3781V23.02H95.9981V25H86.1381ZM102.161 25.2C101.347 25.2 100.607 25.06 99.9406 24.78C99.2873 24.4867 98.7206 24.0933 98.2406 23.6C97.7606 23.0933 97.3873 22.52 97.1206 21.88C96.8673 21.2267 96.7406 20.5333 96.7406 19.8C96.7406 18.8133 96.9673 17.9133 97.4206 17.1C97.8739 16.2733 98.5073 15.6133 99.3206 15.12C100.134 14.6133 101.087 14.36 102.181 14.36C103.274 14.36 104.214 14.6133 105.001 15.12C105.801 15.6133 106.421 16.2667 106.861 17.08C107.301 17.8933 107.521 18.7667 107.521 19.7C107.521 19.86 107.514 20.0133 107.501 20.16C107.487 20.2933 107.474 20.4067 107.461 20.5H99.0806C99.1206 21.1133 99.2873 21.6533 99.5806 22.12C99.8873 22.5733 100.274 22.9333 100.741 23.2C101.207 23.4533 101.707 23.58 102.241 23.58C102.827 23.58 103.381 23.4333 103.901 23.14C104.434 22.8467 104.794 22.46 104.981 21.98L106.861 22.52C106.634 23.0267 106.287 23.4867 105.821 23.9C105.367 24.3 104.827 24.62 104.201 24.86C103.574 25.0867 102.894 25.2 102.161 25.2ZM99.0206 19.04H105.341C105.301 18.44 105.127 17.9133 104.821 17.46C104.527 16.9933 104.147 16.6333 103.681 16.38C103.227 16.1133 102.721 15.98 102.161 15.98C101.614 15.98 101.107 16.1133 100.641 16.38C100.187 16.6333 99.8139 16.9933 99.5206 17.46C99.2273 17.9133 99.0606 18.44 99.0206 19.04ZM108.555 21.94C108.555 21.2733 108.742 20.6933 109.115 20.2C109.502 19.6933 110.028 19.3067 110.695 19.04C111.362 18.76 112.135 18.62 113.015 18.62C113.482 18.62 113.955 18.6533 114.435 18.72C114.928 18.7867 115.362 18.8933 115.735 19.04V18.38C115.735 17.6467 115.515 17.0733 115.075 16.66C114.635 16.2467 114.002 16.04 113.175 16.04C112.588 16.04 112.035 16.1467 111.515 16.36C110.995 16.56 110.442 16.8467 109.855 17.22L109.115 15.74C109.808 15.2733 110.502 14.9267 111.195 14.7C111.902 14.4733 112.642 14.36 113.415 14.36C114.815 14.36 115.915 14.7333 116.715 15.48C117.528 16.2133 117.935 17.26 117.935 18.62V22.52C117.935 22.7733 117.975 22.9533 118.055 23.06C118.148 23.1667 118.302 23.2267 118.515 23.24V25C118.315 25.04 118.135 25.0667 117.975 25.08C117.815 25.0933 117.682 25.1 117.575 25.1C117.108 25.1 116.755 24.9867 116.515 24.76C116.275 24.5333 116.135 24.2667 116.095 23.96L116.035 23.36C115.582 23.9467 115.002 24.4 114.295 24.72C113.588 25.04 112.875 25.2 112.155 25.2C111.462 25.2 110.842 25.06 110.295 24.78C109.748 24.4867 109.322 24.0933 109.015 23.6C108.708 23.1067 108.555 22.5533 108.555 21.94ZM115.215 22.58C115.375 22.4067 115.502 22.2333 115.595 22.06C115.688 21.8867 115.735 21.7333 115.735 21.6V20.4C115.362 20.2533 114.968 20.1467 114.555 20.08C114.142 20 113.735 19.96 113.335 19.96C112.535 19.96 111.882 20.12 111.375 20.44C110.882 20.76 110.635 21.2 110.635 21.76C110.635 22.0667 110.715 22.36 110.875 22.64C111.048 22.92 111.288 23.1467 111.595 23.32C111.915 23.4933 112.308 23.58 112.775 23.58C113.255 23.58 113.715 23.4867 114.155 23.3C114.595 23.1133 114.948 22.8733 115.215 22.58ZM126.484 16.44C125.631 16.4533 124.871 16.6467 124.204 17.02C123.551 17.3933 123.084 17.92 122.804 18.6V25H120.604V14.54H122.644V16.88C123.004 16.16 123.478 15.5867 124.064 15.16C124.651 14.72 125.271 14.48 125.924 14.44C126.058 14.44 126.164 14.44 126.244 14.44C126.338 14.44 126.418 14.4467 126.484 14.46V16.44ZM137.465 25H135.265V19.14C135.265 18.1667 135.105 17.4533 134.785 17C134.478 16.5467 134.018 16.32 133.405 16.32C132.978 16.32 132.551 16.4267 132.125 16.64C131.711 16.8533 131.338 17.1467 131.005 17.52C130.671 17.88 130.431 18.3 130.285 18.78V25H128.085V14.54H130.085V16.64C130.351 16.1733 130.698 15.7733 131.125 15.44C131.565 15.0933 132.058 14.8267 132.605 14.64C133.151 14.4533 133.731 14.36 134.345 14.36C134.971 14.36 135.485 14.4733 135.885 14.7C136.298 14.9267 136.618 15.24 136.845 15.64C137.085 16.0267 137.245 16.48 137.325 17C137.418 17.5067 137.465 18.0467 137.465 18.62V25Z" fill="#7781D4"/>
</svg>
